<svg id="Layer_1" data-name="Layer 1" xmlns="http://www.w3.org/2000/svg" xmlns:xlink="http://www.w3.org/1999/xlink" viewBox="0 0 409 110"><defs><style>.cls-1{fill:#e73052;}.cls-2{fill:url(#linear-gradient);}</style><linearGradient id="linear-gradient" x1="40.23" y1="87.41" x2="40.23" y2="16.69" gradientUnits="userSpaceOnUse"><stop offset="0" stop-color="#ed1e79"/><stop offset="1" stop-color="#fbae17"/></linearGradient></defs><path class="cls-1" d="M107.7,48.89c-5.86-2.21-11.92-4.51-11.92-7.74,0-4.38,4.78-7.94,10.65-7.94s10.65,3.56,10.65,7.94a3.23,3.23,0,0,0,3.36,3.29h0a3.22,3.22,0,0,0,3.36-3.29c0-8.08-7.79-14.66-17.37-14.66S89.06,33.07,89.06,41.15s9.27,11.59,17.41,14.66c6.19,2.34,12,4.55,12,7.92,0,4.3-5.53,7.94-12.08,7.94S94.35,68,94.35,63.73a3.36,3.36,0,0,0-6.72,0c0,8.08,8.44,14.65,18.8,14.65,10.19,0,18.8-6.7,18.8-14.64C125.27,55.54,115.94,52,107.7,48.89Z"/><path class="cls-1" d="M158.57,41.28h0a3.56,3.56,0,0,0-3.49-.1,3.37,3.37,0,0,0-1.75,3V64c0,4.26-3.91,7.72-8.72,7.72s-8.8-3.46-8.8-7.72l.08-19.68a3.35,3.35,0,0,0-1-2.57,3.44,3.44,0,0,0-2.27-.93,3.36,3.36,0,0,0-3.51,3.35V64c0,8,7,14.43,15.51,14.43S160.05,71.91,160.05,64l.07-19.68A3.3,3.3,0,0,0,158.57,41.28Z"/><path class="cls-1" d="M184.43,40.79a17.9,17.9,0,0,0-10.94,3.39v0a3.36,3.36,0,0,0-6.72,0V75a3.36,3.36,0,0,0,6.72,0V59.25c.06-7.24,4.25-11.75,10.94-11.75a3.29,3.29,0,0,0,2.51-1.08,3.38,3.38,0,0,0,.85-2.27A3.29,3.29,0,0,0,184.43,40.79Z"/><path class="cls-1" d="M205.45,40.79c-9.74,0-17.37,8.26-17.37,18.8a19.31,19.31,0,0,0,5.55,13.84,16.83,16.83,0,0,0,11.93,5h.09a17.31,17.31,0,0,0,14.73-7.57A3.39,3.39,0,0,0,214.81,67a10.62,10.62,0,0,1-9.25,4.71h-.11c-4.76,0-8.94-3.62-10.24-8.73h24.25a3.39,3.39,0,0,0,3.35-3.35C222.81,49.22,215,40.79,205.45,40.79Zm10.47,15.44H195.21c1.3-5.11,5.48-8.73,10.24-8.73C210.75,47.5,215,52,215.92,56.23Z"/><path class="cls-1" d="M250.7,48.89c-5.86-2.21-11.92-4.51-11.92-7.74,0-4.38,4.78-7.94,10.65-7.94s10.66,3.56,10.66,7.94a3.23,3.23,0,0,0,3.35,3.29h0a3.22,3.22,0,0,0,3.36-3.29c0-8.08-7.79-14.66-17.37-14.66s-17.36,6.58-17.36,14.66,9.26,11.59,17.4,14.66c6.2,2.34,12,4.55,12,7.92,0,4.3-5.54,7.94-12.09,7.94S237.35,68,237.35,63.73a3.36,3.36,0,0,0-6.71,0c0,8.08,8.43,14.65,18.79,14.65,10.19,0,18.8-6.7,18.8-14.64C268.28,55.54,258.94,52,250.7,48.89Z"/><path class="cls-1" d="M287.75,47.5a3.36,3.36,0,1,0,0-6.71h-6.22V34.93A3.17,3.17,0,0,0,280,32.1a3.63,3.63,0,0,0-3.58,0,3.18,3.18,0,0,0-1.56,2.83v5.86H272.6a3.36,3.36,0,1,0,0,6.71h2.22V67.25c.08,7.08,4.8,11.13,12.93,11.13a3.36,3.36,0,1,0,0-6.71c-4.13,0-6.17-1.46-6.22-4.43V47.5Z"/><path class="cls-1" d="M324.19,40.86h0a3.22,3.22,0,0,0-3.36,3.29v.57a16.45,16.45,0,0,0-10.65-3.93c-9.58,0-17.37,8.43-17.37,18.8s7.79,18.79,17.37,18.79a16.5,16.5,0,0,0,10.65-3.92V75a3.22,3.22,0,0,0,3.35,3.29h0A3.22,3.22,0,0,0,327.54,75V44.15A3.21,3.21,0,0,0,324.19,40.86Zm-3.36,18.73c0,6.66-4.78,12.08-10.65,12.08s-10.66-5.42-10.66-12.08S304.3,47.5,310.18,47.5,320.83,52.92,320.83,59.59Z"/><path class="cls-1" d="M353.36,40.79a17.9,17.9,0,0,0-10.94,3.39v0a3.14,3.14,0,0,0-1.57-2.82,3.65,3.65,0,0,0-3.58,0,3.19,3.19,0,0,0-1.57,2.83V75a3.36,3.36,0,0,0,6.72,0V59.25c.06-7.24,4.25-11.75,10.94-11.75a3.3,3.3,0,0,0,2.51-1.08,3.42,3.42,0,0,0,.84-2.27A3.28,3.28,0,0,0,353.36,40.79Z"/><path class="cls-1" d="M377.14,71.67c-4.13,0-6.17-1.46-6.22-4.43V47.5h6.22a3.36,3.36,0,1,0,0-6.71h-6.22V34.93a3.17,3.17,0,0,0-1.57-2.83,3.63,3.63,0,0,0-3.58,0,3.16,3.16,0,0,0-1.56,2.83v5.86H362a3.36,3.36,0,1,0,0,6.71h2.22V67.25c.08,7.08,4.79,11.13,12.93,11.13a3.36,3.36,0,1,0,0-6.71Z"/><path class="cls-2" d="M36.36,42.49a.88.88,0,0,1,.6-1.56,7.5,7.5,0,0,0,2.23-.34,7.13,7.13,0,0,0,4.66-9A7.26,7.26,0,0,0,31.67,29c2.48-4.72,8.38-7.3,14-6.76,6,.57,10,5.26,12.6,9.83a.89.89,0,0,0,1.61-.75C51.47,7.36,23.36,16.51,23.06,32.63c-.21,11,19.85,26,25.83,31.39l-.08,0a7.49,7.49,0,0,0-6.54-1.19A7.35,7.35,0,0,0,37.2,72a7.48,7.48,0,0,0,12.46,3.09C47,79.85,40.8,82.33,35,81.61c-6.25-.79-10.32-5.91-12.83-10.77a.88.88,0,0,0-1.63.67c7.82,25.27,37.29,16.69,38.1,0C59.11,61.93,44.49,49.22,36.36,42.49Z"/></svg>