<svg xmlns="http://www.w3.org/2000/svg" xmlns:xlink="http://www.w3.org/1999/xlink" width="1200" zoomAndPan="magnify" viewBox="0 0 900 899.99999" height="1200" preserveAspectRatio="xMidYMid meet" version="1.2"><defs><clipPath id="e718eb608f"><path d="M 92 421 L 808 421 L 808 502 L 92 502 Z M 92 421 "/></clipPath><clipPath id="9248cbf3b2"><path d="M 90 468.140625 L 806.46875 396.933594 L 809.957031 432.007812 L 93.488281 503.21875 Z M 90 468.140625 "/></clipPath><clipPath id="2ac53b49c5"><path d="M 90 468.140625 L 806.46875 396.933594 L 809.957031 432.007812 L 93.488281 503.21875 Z M 90 468.140625 "/></clipPath><linearGradient id="gradient-primary" gradientUnits="userSpaceOnUse" x1="92" y1="421" x2="808" y2="502"><stop offset="0%" stop-color="#FFB65F"/><stop offset="33.33%" stop-color="#ED7C4B"/><stop offset="66.66%" stop-color="#E73052"/><stop offset="100%" stop-color="#EE2D6E"/></linearGradient></defs><g id="22f2b35072"><g clip-rule="nonzero" clip-path="url(#e718eb608f)"><g clip-rule="nonzero" clip-path="url(#9248cbf3b2)"><g clip-rule="nonzero" clip-path="url(#2ac53b49c5)"><path style=" stroke:none;fill-rule:nonzero;fill:url(#gradient-primary);fill-opacity:1;" d="M 803.722656 423.824219 C 755.101562 420.910156 706.480469 421.097656 657.800781 422.21875 C 611.601562 423.402344 565.308594 425.214844 519.15625 428.40625 C 429.917969 434.488281 341.089844 444.710938 252.738281 458.136719 C 228.164062 461.820312 203.46875 465.824219 178.957031 470.117188 C 152.464844 474.765625 125.621094 478.980469 99.632812 485.59375 C 95.402344 486.632812 92.164062 489.898438 92.773438 494.484375 C 93.339844 498.609375 97.402344 502.078125 101.664062 501.34375 C 148.019531 493.949219 194.054688 484.882812 240.425781 477.640625 C 284.355469 470.796875 328.378906 464.871094 372.632812 459.699219 C 463.4375 449.125 554.839844 441.433594 646.148438 437.472656 C 671.289062 436.367188 696.304688 435.585938 721.472656 434.789062 C 748.820312 434.082031 776.199219 433.6875 803.441406 431.90625 C 808.855469 431.835938 809.179688 424.210938 803.722656 423.824219 Z M 803.722656 423.824219 "/></g></g></g></g></svg>
